<?xml version="1.0" encoding="UTF-8" standalone="no"?> <svg width="64" height="64" viewBox="0 0 64 64" fill="none" xmlns="http://www.w3.org/2000/svg">
<path  d="M48.0701 7.00009H27.7001C27.6535 6.99541 27.6066 6.99541 27.5601 7.00009H27.3301C27.259 7.03625 27.192 7.07982 27.1301 7.13009C27.092 7.15112 27.0553 7.1745 27.0201 7.20009L23.2401 10.7701L20.6001 7.77009C20.4249 7.5714 20.178 7.45034 19.9137 7.43346C19.6493 7.41659 19.3891 7.50529 19.1901 7.68009L12.6901 13.4201C12.4954 13.5949 12.3769 13.839 12.3601 14.1001C12.35 14.2316 12.366 14.3638 12.4072 14.4891C12.4483 14.6143 12.5139 14.7302 12.6001 14.8301L15.4801 18.1001L12.1001 21.3601C12.0444 21.4294 11.9942 21.5029 11.9501 21.5801C11.9291 21.615 11.9058 21.6485 11.8801 21.6801C11.8754 21.7266 11.8754 21.7735 11.8801 21.8201C11.8528 21.9009 11.836 21.985 11.8301 22.0701V53.8501C11.83 54.9421 12.2604 55.9902 13.0279 56.767C13.7953 57.5439 14.8381 57.9869 15.9301 58.0001H48.0701C49.169 57.9974 50.222 57.559 50.9981 56.7811C51.7742 56.0031 52.2101 54.949 52.2101 53.8501V11.1501C52.2101 10.0512 51.7742 8.99712 50.9981 8.21913C50.222 7.44114 49.169 7.00274 48.0701 7.00009V7.00009ZM16.8001 16.6401L14.8001 14.3301L19.8001 9.92009L21.8001 12.2101L21.3201 12.6601L16.8001 16.6401ZM50.2101 53.8501C50.2101 54.4186 49.9849 54.9639 49.5839 55.3668C49.1829 55.7698 48.6386 55.9974 48.0701 56.0001H15.9301C15.3616 55.9974 14.8173 55.7698 14.4163 55.3668C14.0152 54.9639 13.7901 54.4186 13.7901 53.8501V22.5201L22.6701 14.1301L23.8801 13.0601C23.9631 12.9834 24.031 12.8918 24.0801 12.7901L28.1001 9.00009H48.1001C48.6686 9.00273 49.2129 9.23042 49.6139 9.63334C50.0149 10.0363 50.2401 10.5816 50.2401 11.1501L50.2101 53.8501Z" fill="black"/>
<path  d="M44.0002 11.3003H31.1402C30.4188 11.3003 29.7269 11.5869 29.2168 12.097C28.7067 12.6071 28.4202 13.2989 28.4202 14.0203C28.4202 14.7417 28.7067 15.4335 29.2168 15.9436C29.7269 16.4537 30.4188 16.7403 31.1402 16.7403H44.0002C44.7216 16.7403 45.4134 16.4537 45.9235 15.9436C46.4336 15.4335 46.7202 14.7417 46.7202 14.0203C46.7202 13.2989 46.4336 12.6071 45.9235 12.097C45.4134 11.5869 44.7216 11.3003 44.0002 11.3003ZM44.0002 14.7403H31.1402C30.9492 14.7403 30.7661 14.6644 30.631 14.5294C30.496 14.3944 30.4202 14.2112 30.4202 14.0203C30.4202 13.8293 30.496 13.6462 30.631 13.5112C30.7661 13.3761 30.9492 13.3003 31.1402 13.3003H44.0002C44.1911 13.3003 44.3743 13.3761 44.5093 13.5112C44.6443 13.6462 44.7202 13.8293 44.7202 14.0203C44.7202 14.2112 44.6443 14.3944 44.5093 14.5294C44.3743 14.6644 44.1911 14.7403 44.0002 14.7403V14.7403Z" fill="black"/>
<path d="M41.3001 28.7801C41.1127 28.5938 40.8593 28.4893 40.5951 28.4893C40.3309 28.4893 40.0775 28.5938 39.8901 28.7801L35.0501 33.62C34.2343 33.0804 33.2782 32.7918 32.3001 32.7901H31.7001C30.722 32.7918 29.7658 33.0804 28.9501 33.62L24.1101 28.7801C23.9227 28.5938 23.6693 28.4893 23.4051 28.4893C23.1409 28.4893 22.8875 28.5938 22.7001 28.7801C22.6064 28.873 22.532 28.9836 22.4812 29.1055C22.4304 29.2273 22.4043 29.358 22.4043 29.49C22.4043 29.6221 22.4304 29.7528 22.4812 29.8746C22.532 29.9965 22.6064 30.1071 22.7001 30.2001L27.5401 35C26.9919 35.8124 26.6994 36.7701 26.7001 37.75V38.35C26.7006 39.3298 26.9931 40.2872 27.5401 41.1L22.7001 46C22.5138 46.1874 22.4093 46.4409 22.4093 46.7051C22.4093 46.9692 22.5138 47.2227 22.7001 47.41C22.8875 47.5963 23.1409 47.7008 23.4051 47.7008C23.6693 47.7008 23.9227 47.5963 24.1101 47.41L29.0001 42.55C29.8124 43.0982 30.7701 43.3907 31.7501 43.39H32.3501C33.33 43.3907 34.2878 43.0982 35.1001 42.55L39.9401 47.39C40.1275 47.5763 40.3809 47.6808 40.6451 47.6808C40.9093 47.6808 41.1627 47.5763 41.3501 47.39C41.5363 47.2027 41.6409 46.9492 41.6409 46.6851C41.6409 46.4209 41.5363 46.1674 41.3501 45.98L36.5101 41.14C37.0571 40.3272 37.3496 39.3698 37.3501 38.39V37.7901C37.3441 36.7912 37.0337 35.8179 36.4601 35L41.3001 30.2001C41.3938 30.1071 41.4682 29.9965 41.519 29.8746C41.5698 29.7528 41.5959 29.6221 41.5959 29.49C41.5959 29.358 41.5698 29.2273 41.519 29.1055C41.4682 28.9836 41.3938 28.873 41.3001 28.7801V28.7801ZM31.7001 41.39C30.9044 41.39 30.1414 41.074 29.5788 40.5114C29.0162 39.9488 28.7001 39.1857 28.7001 38.39V37.7901C28.7001 36.9944 29.0162 36.2313 29.5788 35.6687C30.1414 35.1061 30.9044 34.7901 31.7001 34.7901H32.3001C33.0957 34.7901 33.8588 35.1061 34.4214 35.6687C34.984 36.2313 35.3001 36.9944 35.3001 37.7901V38.39C35.3001 39.1857 34.984 39.9488 34.4214 40.5114C33.8588 41.074 33.0957 41.39 32.3001 41.39H31.7001Z" fill="black"/>
</svg>
