<?xml version="1.0" encoding="UTF-8" standalone="no"?> <svg width="64" height="64" viewBox="0 0 64 64" fill="none" xmlns="http://www.w3.org/2000/svg">
<path d="M56 25.86H33V15.09C40.28 13.73 39.46 3.17 32 3C24.54 3.17 23.73 13.73 31 15.09V25.86H8C6.67392 25.86 5.40215 26.3868 4.46447 27.3245C3.52678 28.2621 3 29.5339 3 30.86V56C3 57.3261 3.52678 58.5979 4.46447 59.5355C5.40215 60.4732 6.67392 61 8 61H56C57.3261 61 58.5979 60.4732 59.5355 59.5355C60.4732 58.5979 61 57.3261 61 56V30.83C60.9921 29.5091 60.4618 28.245 59.525 27.3138C58.5881 26.3826 57.3209 25.86 56 25.86V25.86ZM53 53.23C52.9473 54.3098 52.4813 55.3279 51.6985 56.0735C50.9157 56.819 49.876 57.2349 48.795 57.2349C47.7139 57.2349 46.6743 56.819 45.8915 56.0735C45.1087 55.3279 44.6427 54.3098 44.59 53.23V47.94H36.2V53.23C36.2 54.3439 35.7575 55.4122 34.9698 56.1998C34.1822 56.9875 33.1139 57.43 32 57.43C30.8861 57.43 29.8178 56.9875 29.0302 56.1998C28.2425 55.4122 27.8 54.3439 27.8 53.23V47.94H19.41V53.23C19.3573 54.3098 18.8913 55.3279 18.1085 56.0735C17.3257 56.819 16.2861 57.2349 15.205 57.2349C14.1239 57.2349 13.0843 56.819 12.3015 56.0735C11.5187 55.3279 11.0527 54.3098 11 53.23V34.23C10.9722 33.6605 11.0604 33.0914 11.2592 32.557C11.458 32.0227 11.7632 31.5342 12.1564 31.1214C12.5496 30.7085 13.0226 30.3798 13.5466 30.1553C14.0707 29.9307 14.6349 29.8149 15.205 29.8149C15.7751 29.8149 16.3393 29.9307 16.8634 30.1553C17.3874 30.3798 17.8604 30.7085 18.2536 31.1214C18.6468 31.5342 18.952 32.0227 19.1508 32.557C19.3496 33.0914 19.4378 33.6605 19.41 34.23V39.51H27.8V34.25C27.8033 33.3108 28.1198 32.3996 28.6995 31.6606C29.2791 30.9215 30.0886 30.397 31 30.17V36.3C31 36.5652 31.1054 36.8196 31.2929 37.0071C31.4804 37.1946 31.7348 37.3 32 37.3C32.2652 37.3 32.5196 37.1946 32.7071 37.0071C32.8946 36.8196 33 36.5652 33 36.3V30.17C33.9122 30.3954 34.7228 30.9195 35.3027 31.6589C35.8825 32.3983 36.1984 33.3104 36.2 34.25V39.53H44.59V34.25C44.74 28.7 52.86 28.7 53 34.25V53.23Z" fill="black"/>
</svg>
