<?xml version="1.0" ?><svg viewBox="0 0 40 40" xmlns="http://www.w3.org/2000/svg"><g id="Viber"><path d="M13.3,12.81c.21-.21.92-.76.92-.76a1.18,1.18,0,0,1,1.68.19l1.62,2.06a1.25,1.25,0,0,1-.08,1.62l-.77.81a.79.79,0,0,0-.18.84A7.86,7.86,0,0,0,17.94,20a15,15,0,0,0,2.54,1.93,1.13,1.13,0,0,0,1.35-.17l.72-.69A1.12,1.12,0,0,1,24,20.9l2.13,1.42a1.31,1.31,0,0,1,.32,1.87l-.38.52a2.69,2.69,0,0,1-3.33.81A20.12,20.12,0,0,1,17,21.68a28.18,28.18,0,0,1-3.44-4.91l-.8-1.72A1.72,1.72,0,0,1,13,13.23,3.1,3.1,0,0,1,13.3,12.81Zm12,5.47c0-.14,0-.27,0-.41a5,5,0,0,0-4.95-5h-.22a.27.27,0,0,0-.25.27.26.26,0,0,0,.28.25h.19a4.44,4.44,0,0,1,4.43,4.43c0,.12,0,.25,0,.37a.26.26,0,0,0,.24.28h0A.26.26,0,0,0,25.28,18.28Zm-1.89-.59a2,2,0,0,0,0-.34,2.67,2.67,0,0,0-2.66-2.66h-.17a.28.28,0,0,0-.24.29.26.26,0,0,0,.29.23h.12a2.13,2.13,0,0,1,2.13,2.14,2.44,2.44,0,0,1,0,.27.26.26,0,0,0,.22.3h0A.26.26,0,0,0,23.39,17.69ZM27,18.84c0-.25,0-.51,0-.76A7.11,7.11,0,0,0,20,11H19.6a.25.25,0,0,0-.24.27.27.27,0,0,0,.27.25H20a6.58,6.58,0,0,1,6.58,6.57c0,.23,0,.47,0,.71a.25.25,0,0,0,.23.28h0A.27.27,0,0,0,27,18.84Zm-3.64-1.15a2,2,0,0,0,0-.34,2.67,2.67,0,0,0-2.66-2.66h-.17a.28.28,0,0,0-.24.29.26.26,0,0,0,.29.23h.12a2.13,2.13,0,0,1,2.13,2.14,2.44,2.44,0,0,1,0,.27.26.26,0,0,0,.22.3h0A.26.26,0,0,0,23.39,17.69Zm9.83-1.86-.1,5.85c0,5.3-4.82,8.86-10.12,8.86H17.81L15.15,33.6a1.15,1.15,0,0,1-2-.75v-3a9.7,9.7,0,0,1-6.36-9V16c0-5.55,3.21-9.6,9.94-9.94,1.41-.07,5.66,0,5.66,0C29.41,6,33.22,10.05,33.22,15.83Zm-1.94.44C31.19,10.88,28,8,22,8,22,8,18.4,8,17.2,8c-5.74.28-8.37,3.74-8.37,8.34v4.09A7.71,7.71,0,0,0,14,28v4.87a.22.22,0,0,0,.39.15l2.18-2.52,1.8-2.08h4.21c4.87,0,8.63-3,8.63-7.35Z"/></g></svg>