<?xml version="1.0" standalone="no"?>
<!DOCTYPE svg PUBLIC "-//W3C//DTD SVG 20010904//EN"
 "http://www.w3.org/TR/2001/REC-SVG-20010904/DTD/svg10.dtd">
<svg version="1.0" xmlns="http://www.w3.org/2000/svg"
 width="1280.000000pt" height="799.000000pt" viewBox="0 0 1280.000000 799.000000"
 preserveAspectRatio="xMidYMid meet">
<g transform="translate(0.000000,799.000000) scale(0.100000,-0.100000)"
fill="#CD3220" stroke="none">
<path d="M2889 7653 c0 -186 -4 -346 -8 -357 -5 -13 -40 -28 -121 -53 -166
-50 -325 -115 -500 -204 -86 -43 -160 -79 -165 -79 -6 0 -119 109 -252 242
l-243 243 -332 -330 c-183 -182 -420 -416 -525 -520 -106 -104 -193 -194 -193
-200 0 -6 108 -118 240 -250 132 -132 240 -244 240 -250 0 -5 -36 -79 -79
-165 -89 -176 -154 -334 -204 -501 l-35 -114 -356 -3 -356 -2 0 -750 0 -750
356 -2 356 -3 35 -115 c57 -188 99 -295 195 -488 l91 -184 -242 -242 c-132
-132 -241 -246 -241 -252 0 -5 233 -240 518 -521 284 -281 521 -515 525 -519
4 -4 117 101 250 234 134 133 246 242 250 242 5 0 63 -29 130 -64 183 -96 338
-159 553 -226 83 -25 103 -35 108 -53 3 -12 6 -169 6 -349 l0 -328 745 0 745
0 0 344 c0 263 3 346 13 354 6 5 55 22 107 37 144 41 358 128 523 213 l147 76
243 -242 c133 -133 247 -242 252 -242 6 0 246 236 535 525 l525 525 -243 243
c-133 133 -242 249 -242 258 0 9 21 54 46 100 70 126 157 328 204 474 23 72
47 146 54 165 l12 35 349 5 350 5 0 745 0 745 -349 5 -349 5 -33 105 c-55 181
-102 299 -195 485 -49 100 -89 185 -89 190 0 6 109 119 242 252 l243 243 -525
525 c-289 289 -529 525 -535 525 -5 0 -119 -109 -252 -242 l-241 -241 -159 80
c-180 92 -341 158 -499 204 -60 17 -115 36 -121 42 -10 7 -13 91 -13 358 l0
349 -745 0 -745 0 -1 -337z m882 -1764 c378 -38 683 -181 944 -443 194 -194
321 -404 390 -641 35 -122 69 -426 61 -554 -7 -114 -44 -296 -83 -406 -261
-728 -1040 -1157 -1788 -983 -665 154 -1144 710 -1194 1385 -47 622 286 1207
845 1486 259 130 548 185 825 156z"/>
<path d="M11440 5491 c0 -108 -1 -111 -65 -131 -22 -7 -75 -29 -118 -48 l-78
-35 -75 74 -74 74 -160 -160 -159 -159 69 -72 c39 -40 70 -78 70 -84 0 -7 -11
-36 -25 -64 -13 -28 -35 -80 -48 -116 l-23 -65 -104 -5 -105 -5 -3 -227 -2
-228 106 0 c95 0 106 -2 111 -19 2 -10 20 -56 40 -102 19 -46 40 -96 46 -112
11 -26 8 -31 -63 -102 l-74 -75 154 -155 c85 -85 159 -155 164 -155 6 0 43 32
83 72 l72 71 88 -40 c48 -23 103 -44 121 -48 18 -4 37 -15 42 -25 6 -10 10
-62 10 -114 l0 -96 225 0 225 0 0 104 c0 71 4 107 13 113 6 5 41 20 77 33 36
12 86 33 112 46 26 13 50 24 54 24 3 0 40 -32 80 -72 l75 -72 159 159 160 160
-71 71 c-82 82 -81 73 -24 204 20 47 40 95 45 108 9 21 15 22 120 22 l110 0 0
230 0 230 -110 0 c-105 0 -111 1 -120 23 -5 12 -25 60 -45 107 -57 131 -58
122 24 204 l71 71 -160 160 -160 160 -73 -73 c-40 -39 -76 -72 -81 -72 -4 0
-36 13 -70 29 -33 16 -83 37 -111 46 -75 25 -75 25 -75 136 l0 99 -225 0 -225
0 0 -99z m376 -562 c124 -40 221 -124 280 -244 121 -244 23 -536 -217 -650
-129 -61 -247 -69 -375 -25 -297 102 -418 460 -246 726 118 183 344 261 558
193z"/>
<path d="M8385 3943 c-203 -80 -374 -149 -378 -153 -4 -4 22 -81 58 -172 36
-91 65 -174 65 -185 0 -12 -18 -33 -45 -52 -47 -34 -193 -174 -258 -248 -31
-36 -41 -41 -60 -34 -12 5 -91 39 -176 76 -84 37 -157 63 -161 58 -4 -4 -80
-174 -169 -378 -159 -368 -160 -370 -138 -382 13 -6 88 -39 167 -74 80 -34
150 -67 157 -73 9 -8 10 -28 2 -81 -6 -38 -9 -142 -7 -230 1 -88 -1 -165 -5
-172 -4 -6 -84 -41 -177 -78 -94 -37 -170 -70 -170 -74 0 -13 291 -746 300
-755 6 -6 77 17 180 57 93 37 174 67 179 67 5 0 35 -32 67 -71 31 -38 106
-117 166 -174 l109 -103 -76 -173 c-67 -154 -74 -175 -60 -185 35 -26 738
-325 746 -317 4 4 37 78 74 163 37 85 72 161 79 168 10 10 40 11 147 4 74 -5
177 -7 229 -3 53 4 100 3 107 -2 7 -5 42 -85 78 -178 37 -93 72 -169 79 -169
15 0 749 289 757 298 3 4 -26 88 -65 186 l-70 179 34 26 c80 61 191 164 246
230 32 39 66 71 75 71 9 0 89 -32 178 -71 89 -39 166 -69 172 -67 9 3 314 690
325 734 5 19 -6 26 -93 64 -54 24 -132 58 -173 76 l-75 33 3 38 c1 21 3 131 4
245 l2 208 171 66 c93 37 173 69 177 73 6 5 -282 755 -296 768 -2 3 -80 -25
-173 -61 -92 -36 -175 -66 -184 -66 -9 0 -37 26 -62 58 -54 69 -164 182 -230
236 -26 21 -47 43 -47 49 0 5 31 82 70 171 38 88 71 167 72 174 3 12 -740 344
-753 336 -4 -2 -40 -80 -80 -174 -41 -93 -79 -172 -85 -174 -6 -2 -45 0 -85 5
-41 6 -146 9 -234 7 l-160 -3 -70 174 c-39 96 -75 176 -80 177 -6 2 -176 -62
-380 -143z m950 -1047 c150 -40 272 -107 382 -210 157 -146 245 -317 273 -534
15 -114 8 -185 -32 -327 -71 -257 -217 -435 -453 -550 -124 -60 -188 -76 -342
-82 -169 -7 -278 15 -422 87 -532 267 -644 972 -221 1390 122 120 296 210 460
239 77 14 283 6 355 -13z"/>
</g>
</svg>
